<svg xmlns="http://www.w3.org/2000/svg" width="758.249" height="159.561" viewBox="0 0 758.249 159.561">
  <defs>
    <style>
      .cls-1 {
        fill: #fff9f4;
        fill-rule: evenodd;
      }
    </style>
  </defs>
  <path id="ポートフォリオ" class="cls-1" d="M753.805,1036.68q3.662-6.27,5.452-19.21a166.9,166.9,0,0,1,5.453-25.143,135.173,135.173,0,0,0,4.557-18.718q0.892-6.507.895-22.135a30.889,30.889,0,0,0,10.336.244q5.775-.732,12.939-2.36a30.069,30.069,0,0,0,12.614-6.1q5.451-4.476,3.174-14.079t-19.694-9.6q-17.418,0-18.392-4.15a69.755,69.755,0,0,1-1.384-11.556q-0.408-7.406-1.79-9.685a22.147,22.147,0,0,0-3.255-4.15q-1.874-1.869-8.22-2.2t-8.626.569a15.761,15.761,0,0,0-5.045,3.662q-2.77,2.77-2.767,7.813a105.4,105.4,0,0,1-1.465,14.648,85.287,85.287,0,0,1-19.776,2.279q-10.173,0-14.729.407t-4.965,1.383q-0.408.976-.407,6.429a23.885,23.885,0,0,0,2.767,10.9q2.766,5.456,4.558,6.429t13.265,0.977a167.939,167.939,0,0,1,19.612.976q1.789,4.395,1.791,20.1t-1.3,22.543q-1.3,6.836-2.2,11.312a45.8,45.8,0,0,1-1.79,6.832q-0.9,2.37-.895,12.86t1.79,16.85q1.789,6.345,4.395,8.14Q750.14,1042.95,753.805,1036.68Zm41.911-12.29q1.788-1.305,4.882-8.14t2.849-11.96q-0.245-5.13-1.384-12.858t-3.418-11.963q-2.28-4.232-10.335-6.511t-10.335,1.872q-2.282,4.15-2.279,11.068a47.761,47.761,0,0,0,2.279,14.242,121.351,121.351,0,0,1,3.5,13.92q1.221,6.585,5.453,9.19Q793.923,1025.7,795.716,1024.39Zm-87.4-6.92a14.536,14.536,0,0,0,7.813-3.58,40.654,40.654,0,0,0,5.534-6.91,37.837,37.837,0,0,0,4.557-11.479,91.673,91.673,0,0,0,2.279-17.334q0.488-10.09-4.069-14.812A89.211,89.211,0,0,0,712.952,975.4a64.919,64.919,0,0,0-8.382,13.834,96.215,96.215,0,0,0-4.883,13.186c-1.086,3.9-1.411,9.01-.977,15.3A30.292,30.292,0,0,0,708.313,1017.47Zm96.436-101.722a27.219,27.219,0,0,0,5.615-4.964,8.319,8.319,0,0,0,1.872-8.138,60.871,60.871,0,0,0-2.767-8.382,15.257,15.257,0,0,0-6.022-6.592,13.919,13.919,0,0,0-9.44-2.36,25.872,25.872,0,0,0-9.359,2.93,9.193,9.193,0,0,0-5.046,7.242,30.257,30.257,0,0,0,.407,10.092,16.407,16.407,0,0,0,3.907,8.219q2.845,3.014,11.962,3.5Q802.226,917.294,804.749,915.748Zm-10.9-8.545a6.936,6.936,0,0,1-3.418-4.476q-1.06-3.333.814-5.371a5.388,5.388,0,0,1,5.208-1.465q3.335,0.573,5.046,4.883t-1.872,6.1Q796.2,908.342,793.844,907.2Zm111.123,70.964a36.972,36.972,0,0,0,9.44-3.256,15.729,15.729,0,0,0,6.022-5.045,7.647,7.647,0,0,0,.733-6.836,13.775,13.775,0,0,0-2.93-5.615q-1.708-1.71-7.406-2.279l-10.579-1.058q-4.883-.487-20.833.651t-22.624,1.953a88.273,88.273,0,0,0-12.37,2.36,29.87,29.87,0,0,1-9.44,1.3q-3.746-.243-5.452,1.954t-0.407,8.219q1.3,6.024,13.509,9.115Q899.594,979.306,904.967,978.167Zm55.54,64.613c3.907-.54,6.157-1.82,6.755-3.82s1-8.66,1.221-19.94,0.216-24.74,0-40.365a36.316,36.316,0,0,1,14.16,10.417q5.207,6.511,7.812,8.463a14.477,14.477,0,0,0,13.025,0q6.66-3.09,8.22-5.615c1.03-1.681.83-5.071-.57-10.173Q1009,974.1,998.675,964.82T982.48,949.928a119.658,119.658,0,0,1-10.9-11.963q2.277-14,0-40.039-2.117-4.719-7.975-7.243a38.245,38.245,0,0,0-22.624-3.5,8.04,8.04,0,0,0-4.476,8.951q0.893,6.024,2.848,50.456l0.814,12.207q0.976,58.758-.732,67.792t-0.895,11.15q0.812,2.115,6.022,4.72Zm104.943-2.85a64.534,64.534,0,0,0,13.75-4.72,115.2,115.2,0,0,0,14.32-9.6q9.435-7.08,19.53-15.87a68.72,68.72,0,0,0,9.28-19.936q3.09-10.822,6.27-21.566a103.731,103.731,0,0,0,3.98-21.81l-1.62-21.647a135.87,135.87,0,0,1-4.4-16.927q-4.065-9.278-9.44-12.044-16.11,0-21.65,1.383t-26.69,2.2q-21.15.816-32.88,6.022-4.71,7.812-3.09,14.079,1.635,6.267,4.8,8.544,3.18,2.282,25.64,2.279,25.23,0.976,37.76,2.442,0.315,9.929-.16,19.042-0.495,9.119-1.71,17.334a46.141,46.141,0,0,1-5.46,15.788q-4.23,7.569-23.11,21.079t-22.05,18.63a19.086,19.086,0,0,0-3.18,10.1c0,3.3.6,5.56,1.79,6.75A58.881,58.881,0,0,0,1065.45,1039.93Zm134.07,4.32a12.124,12.124,0,0,0,5.37-3.1,119.009,119.009,0,0,0,2.36-34.83q-1.38-17.731-2.04-35.8,9.93,0.816,15.3-.651a15,15,0,0,0,2.69-11.475q-0.9-6.751-4.31-9.847a22.958,22.958,0,0,0-7.82-.976q-2.76.327-5.69,0.814v-5.86q1.785-9.6-5.37-10.172t-11.64-.651q-4.485-.081-5.94,6.266l-1.14,7.161c-2.61-.107-5.29-0.216-8.06-0.325s-6.46-.244-11.07-0.407-7.4.87-8.38,3.092-1.41,5.427-1.3,9.6,2.09,6.918,5.94,8.22a30.286,30.286,0,0,0,10.66,1.79c3.26-.107,6.89-0.27,10.91-0.488a90.908,90.908,0,0,1-8.79,14.648q-5.055,6.836-8.71,12.695a28.993,28.993,0,0,1-7.81,8.706q-4.155,2.85-4.07,11.96t5.53,11.15q5.46,2.04,8.63-1.3a77.93,77.93,0,0,0,7.32-9.36q4.155-6.015,12.29-19.2-0.48,22.293-2.11,28.162a47.965,47.965,0,0,0-1.8,11.55q2.115,5.2,10.42,8.46A15.61,15.61,0,0,0,1199.52,1044.25Zm78.32-8.55q11.235-4.305,13.6-6.1a50.781,50.781,0,0,0,6.91-7.33,47.079,47.079,0,0,0,7.33-12.37,100.16,100.16,0,0,0,4.55-14.318,169.718,169.718,0,0,0,3.18-20.671,229.085,229.085,0,0,0,1.38-23.6,118.505,118.505,0,0,1,.98-16.927q0.975-6.507,2.44-18.555t-0.41-16.52a14.416,14.416,0,0,0-5.61-6.836q-3.75-2.356-10.58-3.336t-7.9,3.011q-1.05,3.99-1.22,33.61t-1.38,39.144q-1.215,9.52-2.52,16.927a35.739,35.739,0,0,1-5.54,13.753q-4.23,6.348-8.38,11.8a33.431,33.431,0,0,1-10.66,9.04q-6.51,3.57-12.53,6.83t-5.05,8.06q0.975,4.8,9.28,8.71A61.3,61.3,0,0,0,1277.84,1035.7Zm-19.77-68.52q4.305-1.869,5.94-4.557a46.113,46.113,0,0,0,3.58-8.382q1.95-5.7,2.44-20.752t-0.49-19.938a37.376,37.376,0,0,0-3.25-9.44,11.126,11.126,0,0,0-7.41-5.941,20.46,20.46,0,0,0-9.27-.57,20.737,20.737,0,0,0-6.6,2.279q-2.43,1.464-2.44,17.334t2.77,48.747Q1253.75,969.053,1258.07,967.18Zm162.39,68.03q4.065-5.61,5.45-14.97t1.55-30.192q0.165-20.832-1.79-47.363,7.485-.648,14.89-1.628a137.06,137.06,0,0,0,14.73-2.767c1.3-4.122,1.74-7.214,1.3-9.277s-1.98-4.313-4.63-6.755-6.46-3.58-11.4-3.418-9.9.245-14.89,0.245q0-7.974.33-16.276a22.8,22.8,0,0,0-4.07-14.486q-12.21.653-16.6,4.639a12.44,12.44,0,0,0-4.4,9.521,114.709,114.709,0,0,0,1.79,16.6q-27.675-.489-37.43-0.245a108.454,108.454,0,0,0-15.3,1.221,13.757,13.757,0,0,0-8.96,5.615q-3.4,4.639-3.41,7.406t3.41,7.08q3.42,4.314,10.18,5.208t11.31,1.547a44.108,44.108,0,0,0,10.74,0q6.18-.649,19.7-1.791-5.385,14.649-12.86,23.031t-13.02,13.672q-5.535,5.291-10.99,9.6a53.918,53.918,0,0,1-12.94,7.4,24.29,24.29,0,0,0,1.06,10.413q1.71,5.535,8.22,11.07a16.479,16.479,0,0,0,12.86-4.07q5.37-4.71,15.95-16.273,7.485-7.974,22.78-28.321,2.61,9.278,2.61,23.438t-3.1,20.346a38.681,38.681,0,0,0-17.41-1.3,8.984,8.984,0,0,0-4.72,7.48,13.706,13.706,0,0,0,2.93,9.28,112.892,112.892,0,0,0,10.5,5.86,84.433,84.433,0,0,0,11.15,4.56Q1416.39,1040.825,1420.46,1035.21Z" transform="translate(-698.531 -885.219)"/>
</svg>
