<svg xmlns="http://www.w3.org/2000/svg" width="758.249" height="159.598"><path d="M55.274 151.468q3.662-6.255 5.452-19.2a166.915 166.915 0 015.453-25.15 135.12 135.12 0 004.557-18.715q.892-6.509.895-22.136a30.887 30.887 0 0010.336.245q5.775-.733 12.939-2.36a30.071 30.071 0 0012.614-6.1q5.451-4.475 3.174-14.079T91 34.373q-17.418 0-18.392-4.15a69.74 69.74 0 01-1.384-11.556q-.408-7.4-1.79-9.684a22.154 22.154 0 00-3.255-4.151q-1.874-1.869-8.22-2.2t-8.626.57a15.73 15.73 0 00-5.045 3.662q-2.77 2.769-2.767 7.812a105.392 105.392 0 01-1.465 14.649 85.287 85.287 0 01-19.776 2.278q-10.173 0-14.729.407T.586 33.394q-.408.976-.407 6.429a23.885 23.885 0 002.767 10.9q2.766 5.454 4.558 6.429t13.265.976a167.916 167.916 0 0119.612.977q1.789 4.395 1.791 20.1t-1.3 22.542q-1.3 6.838-2.2 11.309a45.681 45.681 0 01-1.79 6.84q-.9 2.355-.895 12.86t1.79 16.84q1.789 6.345 4.395 8.14 9.437.002 13.102-6.268zm41.911-12.28q1.788-1.3 4.882-8.14t2.849-11.96q-.245-5.13-1.384-12.86t-3.418-11.966q-2.28-4.23-10.335-6.51t-10.335 1.872q-2.282 4.149-2.279 11.067a47.7 47.7 0 002.279 14.237 122.4 122.4 0 013.5 13.92q1.221 6.6 5.453 9.2c4.663 1.62 7.592 2.01 8.788 1.14zm-87.4-6.92a14.609 14.609 0 007.813-3.58 40.762 40.762 0 005.534-6.92 37.657 37.657 0 004.557-11.47 91.753 91.753 0 002.279-17.338q.488-10.089-4.069-14.811a89.2 89.2 0 00-11.475 12.044 64.9 64.9 0 00-8.382 13.835 96.406 96.406 0 00-4.883 13.18q-1.629 5.865-.977 15.3a29.99 29.99 0 009.6-.24zm96.433-101.73a27.2 27.2 0 005.615-4.965 8.318 8.318 0 001.872-8.138 60.916 60.916 0 00-2.767-8.382 15.262 15.262 0 00-6.022-6.592 13.919 13.919 0 00-9.44-2.36 25.892 25.892 0 00-9.359 2.93 9.194 9.194 0 00-5.046 7.243 30.251 30.251 0 00.407 10.091 16.4 16.4 0 003.907 8.219q2.845 3.014 11.962 3.5 6.348.004 8.871-1.546zm-10.9-8.545a6.936 6.936 0 01-3.418-4.476q-1.06-3.334.814-5.371a5.386 5.386 0 015.208-1.465q3.335.572 5.046 4.883t-1.872 6.1q-3.427 1.474-5.783.333zm111.123 70.963a37.01 37.01 0 009.44-3.255 15.739 15.739 0 006.022-5.046 7.646 7.646 0 00.733-6.836 13.782 13.782 0 00-2.93-5.615q-1.708-1.708-7.406-2.278l-10.579-1.058q-4.883-.489-20.833.651t-22.624 1.953a88.128 88.128 0 00-12.37 2.36 29.9 29.9 0 01-9.44 1.3q-3.746-.245-5.452 1.953t-.407 8.219q1.3 6.024 13.509 9.115 56.959-.318 62.332-1.459zm55.54 64.618c3.907-.55 6.157-1.82 6.755-3.83s1-8.65 1.221-19.93.216-24.74 0-40.37a36.335 36.335 0 0114.16 10.417q5.207 6.514 7.812 8.463a14.5 14.5 0 0013.025 0q6.66-3.09 8.22-5.61c1.03-1.69.83-5.076-.57-10.177q-2.13-7.648-12.455-16.927t-16.2-14.889a119.548 119.548 0 01-10.9-11.963q2.277-14 0-40.039-2.117-4.719-7.975-7.243a38.265 38.265 0 00-22.624-3.5 8.042 8.042 0 00-4.476 8.952q.893 6.023 2.848 50.456l.814 12.207q.976 58.764-.732 67.786-1.708 9.045-.895 11.15c.541 1.41 2.548 2.99 6.022 4.72zm104.943-2.85a65.674 65.674 0 0013.75-4.72 115.2 115.2 0 0014.32-9.6q9.435-7.08 19.53-15.87a68.828 68.828 0 009.28-19.94q3.09-10.822 6.27-21.566a103.754 103.754 0 003.98-21.81l-1.62-21.647a135.968 135.968 0 01-4.4-16.927q-4.065-9.278-9.44-12.045-16.11 0-21.65 1.384t-26.69 2.2q-21.15.816-32.88 6.022-4.71 7.813-3.09 14.079 1.635 6.267 4.8 8.545 3.18 2.281 25.64 2.279 25.23.976 37.76 2.441.315 9.93-.16 19.043-.495 9.117-1.71 17.334a46.155 46.155 0 01-5.46 15.788q-4.23 7.567-23.11 21.073t-22.05 18.64a19.081 19.081 0 00-3.18 10.09q0 4.965 1.79 6.76a59.183 59.183 0 0018.315-1.549zm134.07 4.31a12.211 12.211 0 005.37-3.09 119.009 119.009 0 002.36-34.83q-1.38-17.745-2.04-35.808 9.93.818 15.3-.651a15 15 0 002.69-11.474q-.9-6.753-4.31-9.847a22.964 22.964 0 00-7.82-.977q-2.76.329-5.69.814v-5.859q1.785-9.6-5.37-10.173t-11.64-.651q-4.485-.079-5.94 6.266l-1.14 7.162a2750.638 2750.638 0 00-19.13-.733c-4.61-.163-7.4.87-8.38 3.093s-1.41 5.427-1.3 9.6 2.09 6.917 5.94 8.219a30.263 30.263 0 0010.66 1.79c3.26-.106 6.89-.269 10.91-.488a90.961 90.961 0 01-8.79 14.649q-5.055 6.836-8.71 12.695a28.976 28.976 0 01-7.81 8.71q-4.155 2.85-4.07 11.96t5.53 11.15q5.46 2.04 8.63-1.3a79.587 79.587 0 007.32-9.36q4.155-6.015 12.29-19.21-.48 22.305-2.11 28.16a48.12 48.12 0 00-1.8 11.56q2.115 5.2 10.42 8.46a15.6 15.6 0 008.625.167zm78.32-8.54q11.235-4.32 13.6-6.11a50.009 50.009 0 006.91-7.32 47.241 47.241 0 007.33-12.37 100.51 100.51 0 004.55-14.32 169.793 169.793 0 003.18-20.673 229.085 229.085 0 001.38-23.6 118.505 118.505 0 01.98-16.927q.975-6.509 2.44-18.555t-.41-16.52a14.411 14.411 0 00-5.61-6.836q-3.75-2.358-10.58-3.337t-7.9 3.011q-1.05 3.99-1.22 33.61t-1.38 39.144q-1.215 9.522-2.52 16.927a35.739 35.739 0 01-5.54 13.756q-4.23 6.345-8.38 11.8a33.4 33.4 0 01-10.66 9.03q-6.51 3.585-12.53 6.84t-5.05 8.05q.975 4.8 9.28 8.71a61.5 61.5 0 0022.125-4.306zm-19.77-68.524q4.305-1.869 5.94-4.557a46.129 46.129 0 003.58-8.383q1.95-5.7 2.44-20.752t-.49-19.938a37.376 37.376 0 00-3.25-9.44 11.131 11.131 0 00-7.41-5.941 20.459 20.459 0 00-9.27-.569 20.763 20.763 0 00-6.6 2.278q-2.43 1.465-2.44 17.334t2.77 48.747q10.405 3.099 14.725 1.225zm162.39 68.034q4.065-5.61 5.45-14.97t1.55-30.2q.165-20.832-1.79-47.364 7.485-.648 14.89-1.627a137.307 137.307 0 0014.73-2.767c1.3-4.123 1.74-7.215 1.3-9.278s-1.98-4.313-4.63-6.754-6.46-3.581-11.4-3.418-9.9.244-14.89.244q0-7.973.33-16.276a22.8 22.8 0 00-4.07-14.486q-12.21.653-16.6 4.639a12.44 12.44 0 00-4.4 9.522 114.7 114.7 0 001.79 16.6q-27.675-.488-37.43-.244a108.454 108.454 0 00-15.3 1.221 13.753 13.753 0 00-8.96 5.615q-3.4 4.638-3.41 7.406t3.41 7.08q3.42 4.314 10.18 5.208t11.31 1.546a44.108 44.108 0 0010.74 0q6.18-.648 19.7-1.79-5.385 14.648-12.86 23.03t-13.02 13.672q-5.535 5.292-10.99 9.606a54.111 54.111 0 01-12.94 7.4 24.325 24.325 0 001.06 10.42q1.71 5.535 8.22 11.07a16.516 16.516 0 0012.86-4.07q5.37-4.725 15.95-16.28 7.485-7.965 22.78-28.318 2.61 9.278 2.61 23.438t-3.1 20.34a38.823 38.823 0 00-17.41-1.3 9 9 0 00-4.72 7.49 13.722 13.722 0 002.93 9.28 112.892 112.892 0 0010.5 5.86 83.011 83.011 0 0011.15 4.55q10.405-.471 14.475-6.091z" fill="#66463c" fill-rule="evenodd"/></svg>