<svg xmlns="http://www.w3.org/2000/svg" width="83.879" height="52.484" viewBox="0 0 83.879 52.484">
  <path id="keyboard-solid" d="M76.889,116.484H6.99A6.785,6.785,0,0,1,0,109.924V70.561A6.785,6.785,0,0,1,6.99,64h69.9a6.785,6.785,0,0,1,6.99,6.561v39.363A6.785,6.785,0,0,1,76.889,116.484ZM18.64,79.855V74.388a1.7,1.7,0,0,0-1.747-1.64H11.067a1.7,1.7,0,0,0-1.747,1.64v5.467a1.7,1.7,0,0,0,1.747,1.64h5.825A1.7,1.7,0,0,0,18.64,79.855Zm13.98,0V74.388a1.7,1.7,0,0,0-1.747-1.64H25.047a1.7,1.7,0,0,0-1.747,1.64v5.467a1.7,1.7,0,0,0,1.747,1.64h5.825A1.7,1.7,0,0,0,32.62,79.855Zm13.98,0V74.388a1.7,1.7,0,0,0-1.747-1.64H39.027a1.7,1.7,0,0,0-1.747,1.64v5.467a1.7,1.7,0,0,0,1.747,1.64h5.825A1.7,1.7,0,0,0,46.6,79.855Zm13.98,0V74.388a1.7,1.7,0,0,0-1.747-1.64H53.007a1.7,1.7,0,0,0-1.747,1.64v5.467a1.7,1.7,0,0,0,1.747,1.64h5.825A1.7,1.7,0,0,0,60.579,79.855Zm13.98,0V74.388a1.7,1.7,0,0,0-1.747-1.64H66.987a1.7,1.7,0,0,0-1.747,1.64v5.467a1.7,1.7,0,0,0,1.747,1.64h5.825A1.7,1.7,0,0,0,74.559,79.855ZM25.63,92.976V87.509a1.7,1.7,0,0,0-1.747-1.64H18.057a1.7,1.7,0,0,0-1.747,1.64v5.467a1.7,1.7,0,0,0,1.747,1.64h5.825A1.7,1.7,0,0,0,25.63,92.976Zm13.98,0V87.509a1.7,1.7,0,0,0-1.747-1.64H32.037a1.7,1.7,0,0,0-1.747,1.64v5.467a1.7,1.7,0,0,0,1.747,1.64h5.825A1.7,1.7,0,0,0,39.609,92.976Zm13.98,0V87.509a1.7,1.7,0,0,0-1.747-1.64H46.017a1.7,1.7,0,0,0-1.747,1.64v5.467a1.7,1.7,0,0,0,1.747,1.64h5.825A1.7,1.7,0,0,0,53.589,92.976Zm13.98,0V87.509a1.7,1.7,0,0,0-1.747-1.64H60a1.7,1.7,0,0,0-1.747,1.64v5.467A1.7,1.7,0,0,0,60,94.616h5.825A1.7,1.7,0,0,0,67.569,92.976ZM18.64,106.1V100.63a1.7,1.7,0,0,0-1.747-1.64H11.067a1.7,1.7,0,0,0-1.747,1.64V106.1a1.7,1.7,0,0,0,1.747,1.64h5.825A1.7,1.7,0,0,0,18.64,106.1Zm41.939,0V100.63a1.7,1.7,0,0,0-1.747-1.64H25.047a1.7,1.7,0,0,0-1.747,1.64V106.1a1.7,1.7,0,0,0,1.747,1.64H58.832A1.7,1.7,0,0,0,60.579,106.1Zm13.98,0V100.63a1.7,1.7,0,0,0-1.747-1.64H66.987a1.7,1.7,0,0,0-1.747,1.64V106.1a1.7,1.7,0,0,0,1.747,1.64h5.825A1.7,1.7,0,0,0,74.559,106.1Z" transform="translate(0 -64)"/>
</svg>
