<svg xmlns="http://www.w3.org/2000/svg" width="928.875" height="277.971"><path data-name="ポートフォリオ と その他制作物一覧" d="M172.794 113.59q2.747-4.7 4.089-14.4a125.258 125.258 0 014.092-18.859 101.309 101.309 0 003.418-14.038 139.849 139.849 0 00.672-16.6 23.115 23.115 0 007.751.183q4.332-.549 9.705-1.77a22.538 22.538 0 009.46-4.577q4.089-3.357 2.381-10.559t-14.771-7.2q-13.063 0-13.794-3.113a52.3 52.3 0 01-1.037-8.667q-.307-5.553-1.343-7.263a16.588 16.588 0 00-2.442-3.113q-1.4-1.4-6.164-1.648t-6.47.427a11.821 11.821 0 00-3.784 2.747 7.918 7.918 0 00-2.075 5.859 78.888 78.888 0 01-1.1 10.986 63.943 63.943 0 01-14.831 1.709q-7.63 0-11.048.3t-3.728 1.037a19.965 19.965 0 00-.305 4.822 17.912 17.912 0 002.078 8.178q2.075 4.091 3.418 4.821t9.949.733a126 126 0 0114.709.732q1.342 3.3 1.343 15.076T161.99 76.3q-.978 5.127-1.647 8.483A34.481 34.481 0 01159 89.91q-.672 1.772-.672 9.644a48.02 48.02 0 001.343 12.634q1.342 4.761 3.3 6.1 7.075.002 9.823-4.698zm31.433-9.216q1.341-.976 3.662-6.1a19.99 19.99 0 002.136-8.972q-.183-3.845-1.037-9.643a28.064 28.064 0 00-2.564-8.973q-1.711-3.173-7.751-4.882t-7.752 1.4a17.257 17.257 0 00-1.709 8.3 35.839 35.839 0 001.709 10.681 91.293 91.293 0 012.625 10.437q.915 4.944 4.089 6.9 5.247 1.828 6.592.852zm-65.552-5.188a10.926 10.926 0 005.859-2.686 30.479 30.479 0 004.151-5.188 28.272 28.272 0 003.418-8.606 68.765 68.765 0 001.709-13q.366-7.567-3.052-11.109a66.939 66.939 0 00-8.606 9.034 48.67 48.67 0 00-6.287 10.376 72.452 72.452 0 00-3.662 9.887 35.013 35.013 0 00-.732 11.475 22.669 22.669 0 007.202-.183zm72.327-76.294a20.446 20.446 0 004.211-3.723 6.241 6.241 0 001.4-6.1 45.68 45.68 0 00-2.075-6.286 11.451 11.451 0 00-4.517-4.944 10.437 10.437 0 00-7.08-1.77 19.406 19.406 0 00-7.019 2.2 6.9 6.9 0 00-3.784 5.432 22.679 22.679 0 00.3 7.568 12.3 12.3 0 002.937 6.162q2.135 2.261 8.972 2.625 4.763-.004 6.655-1.164zm-8.179-6.409a5.2 5.2 0 01-2.563-3.357 3.844 3.844 0 01.61-4.028 4.039 4.039 0 013.906-1.1q2.5.429 3.784 3.662t-1.4 4.578a5.132 5.132 0 01-4.337.245zm83.342 53.223a27.748 27.748 0 007.08-2.442 11.8 11.8 0 004.517-3.784 5.733 5.733 0 00.549-5.127 10.326 10.326 0 00-2.2-4.211q-1.283-1.283-5.554-1.709t-7.935-.794q-3.662-.366-15.625.489t-16.968 1.465a66.059 66.059 0 00-9.277 1.77 22.429 22.429 0 01-7.08.976 4.459 4.459 0 00-4.089 1.465q-1.283 1.648-.305 6.165t10.131 6.835q42.728-.243 46.756-1.098zm41.656 48.462q4.394-.612 5.065-2.869t.916-14.954q.243-12.693 0-30.273a27.232 27.232 0 0110.62 7.813 40.255 40.255 0 005.859 6.347 10.854 10.854 0 009.766 0q5-2.318 6.165-4.211t-.428-7.63q-1.587-5.736-9.338-12.7T344.3 48.531a89.754 89.754 0 01-8.179-8.973q1.709-10.5 0-30.029a10.865 10.865 0 00-5.981-5.432 28.7 28.7 0 00-16.968-2.624 6.031 6.031 0 00-3.357 6.713q.669 4.518 2.136 37.842l.611 9.155q.732 44.068-.55 50.843t-.671 8.362q.609 1.584 4.517 3.54zm78.7-2.137a48.857 48.857 0 0010.31-3.54 85.879 85.879 0 0010.75-7.2q7.08-5.31 14.64-11.9a51.391 51.391 0 006.96-14.953q2.325-8.117 4.7-16.174a77.675 77.675 0 002.99-16.358l-1.22-16.235a104.172 104.172 0 01-3.29-12.7q-3.06-6.957-7.08-9.033-12.09 0-16.24 1.038t-20.02 1.648q-15.87.612-24.66 4.516-3.54 5.86-2.32 10.559t3.61 6.409q2.37 1.711 19.22 1.709 18.915.732 28.32 1.831.24 7.447-.12 14.282t-1.28 13a34.6 34.6 0 01-4.09 11.841q-3.18 5.676-17.34 15.808t-16.54 13.977a14.386 14.386 0 00-2.38 7.568q0 3.723 1.35 5.066a44.2 44.2 0 0013.734-1.159zm100.55 3.235a9.064 9.064 0 004.03-2.319 89.184 89.184 0 001.77-26.123q-1.035-13.3-1.52-26.855 7.44.612 11.47-.489a11.225 11.225 0 002.01-8.606q-.66-5.064-3.23-7.385a17.174 17.174 0 00-5.86-.732 91.35 91.35 0 00-4.27.61v-4.395q1.335-7.2-4.03-7.629t-8.73-.488q-3.36-.06-4.45 4.7l-.86 5.372c-1.95-.081-3.97-.163-6.04-.245s-4.84-.183-8.3-.3-5.56.653-6.29 2.32a17.467 17.467 0 00-.98 7.2 6.124 6.124 0 004.46 6.164 22.689 22.689 0 008 1.343q3.66-.12 8.17-.366a67.82 67.82 0 01-6.59 10.986q-3.78 5.127-6.53 9.522a21.6 21.6 0 01-5.86 6.53q-3.1 2.137-3.05 8.973t4.15 8.361c2.73 1.019 4.88.693 6.47-.976a58.149 58.149 0 005.49-7.019q3.12-4.515 9.22-14.4-.36 16.726-1.59 21.119a36.265 36.265 0 00-1.34 8.667q1.59 3.9 7.81 6.347a11.715 11.715 0 006.474.113zm58.75-6.408q8.415-3.237 10.19-4.578a37.589 37.589 0 005.19-5.493 35.225 35.225 0 005.49-9.277 74.981 74.981 0 003.42-10.743 127.944 127.944 0 002.38-15.5 171.916 171.916 0 001.04-17.7 88.619 88.619 0 01.73-12.7q.735-4.881 1.83-13.916t-.3-12.39a10.807 10.807 0 00-4.21-5.127 20.557 20.557 0 00-7.94-2.5q-5.13-.732-5.92 2.259t-.92 25.207q-.12 22.22-1.03 29.358t-1.89 12.7a26.849 26.849 0 01-4.16 10.315q-3.165 4.761-6.28 8.85a25.033 25.033 0 01-8 6.775q-4.875 2.687-9.4 5.127t-3.78 6.043q.735 3.6 6.96 6.531a46.139 46.139 0 0016.604-3.241zm-14.83-51.392a9.317 9.317 0 004.45-3.418 34.889 34.889 0 002.69-6.287q1.455-4.27 1.83-15.563t-.37-14.954a28.123 28.123 0 00-2.44-7.08 8.344 8.344 0 00-5.55-4.456 15.576 15.576 0 00-11.9 1.282q-1.845 1.1-1.84 13t2.08 36.561q7.819 2.319 11.054.915zm121.79 51.025a25.248 25.248 0 004.09-11.23q1.035-7.018 1.16-22.644t-1.34-35.523q5.61-.486 11.17-1.22a103.077 103.077 0 0011.04-2.075q1.47-4.638.98-6.958c-.33-1.545-1.48-3.235-3.48-5.066s-4.84-2.686-8.54-2.564-7.43.183-11.17.183q0-5.979.24-12.207a17.065 17.065 0 00-3.05-10.864q-9.15.489-12.45 3.479a9.321 9.321 0 00-3.3 7.141 85.193 85.193 0 001.35 12.451q-20.76-.366-28.08-.183a81.435 81.435 0 00-11.48.916 10.314 10.314 0 00-6.71 4.211q-2.565 3.478-2.56 5.554t2.56 5.31a11.114 11.114 0 007.63 3.907q5.07.672 8.48 1.159a33.147 33.147 0 008.06 0q4.635-.486 14.77-1.342-4.02 10.986-9.64 17.272t-9.77 10.254q-4.155 3.969-8.24 7.2a40.452 40.452 0 01-9.7 5.554 18.187 18.187 0 00.79 7.812q1.29 4.152 6.17 8.3a12.373 12.373 0 009.64-3.052q4.035-3.539 11.96-12.207 5.61-5.979 17.09-21.24a66.41 66.41 0 011.96 17.578q0 10.62-2.32 15.259a29.158 29.158 0 00-13.07-.977 6.776 6.776 0 00-3.54 5.616 10.3 10.3 0 002.2 6.958 84.834 84.834 0 007.88 4.394 61.941 61.941 0 008.36 3.418c5.204-.24 8.834-1.766 10.864-4.574zm113.1 4.517a11.025 11.025 0 005-2.136 8.107 8.107 0 002.44-3.54q0-7.568-4.09-10.376t-23.37 0l-6.47-1.343q-5.49-4.881-3.42-14.038t5.62-12.695q3.525-3.54 6.28-5.982a43.7 43.7 0 018.06-5.31q5.31-2.867 10.25-5.31a26.569 26.569 0 009.34-8.423q1.71-7.078.79-10.8a11.245 11.245 0 00-2.44-5.249 9.174 9.174 0 00-4.94-2.136q-3.42-.61-7.69 2.99t-8.12 7.081c-2.56 2.319-4.54 4.049-5.92 5.188a5.457 5.457 0 01-4.88 1.1q0-6.345.49-21.057t-2.87-18.982q-3.36-4.272-7.21-4.272a19.252 19.252 0 00-7.75 1.709c-2.6 1.14-4.11 2.178-4.51 3.112s-.29 2.585.36 4.944a26.364 26.364 0 01.98 7.019q0 3.48.37 9.583a118.819 118.819 0 002.13 15.2q1.77 9.095 3.73 11.9a76.6 76.6 0 00-6.9 25.452q-.675 7.021-2.08 9.827t-1.4 9.643q0 6.838 2.44 10.437t13.06 7.141q29.419-.006 32.724-.677zM54.705 275.041a35.723 35.723 0 00-5.127-9.83 44.151 44.151 0 01-5.371-9.52 52.325 52.325 0 01-2.685-7.82 44.31 44.31 0 01-.611-8.72 35.734 35.734 0 01.916-9.22 26.224 26.224 0 012.075-5.37 19.893 19.893 0 001.77-4.46q6.592-6.585 8.362-8.42a23.722 23.722 0 016.531-4.09 28.234 28.234 0 007.812-5.25q3.05-2.985.977-7.38-5.739-2.325-37.6 8.79l9.277-12.7a99.134 99.134 0 018.667-11.962q4.395-5.127 4.517-9.766t-6.836-10.009a6.8 6.8 0 00-7.019 1.281 14.244 14.244 0 01-5.8 3.235q-2.686.612-7.752 1.709t-13.489.122q-9.4-4.395-11.108-.976-.246 6.348 1.1 8.056a16.722 16.722 0 003.6 3.3 51.153 51.153 0 004.944 3.052 55.641 55.641 0 005.676 2.685 44.624 44.624 0 016.044 3.053 28.416 28.416 0 01-1.892 10.985 19.4 19.4 0 01-6.408 7.94q-4.518 3.42-8.606 6.59a26.284 26.284 0 00-6.653 7.57 4.53 4.53 0 002.258 4.82c1.749 1.02 4.822 1.54 9.216 1.58a62.505 62.505 0 0016.236-2.5q-1.222 3.66-2.075 6.96t-1.77 6.84a56.094 56.094 0 00-1.4 8.3 21.209 21.209 0 00.915 8.97 59.866 59.866 0 002.564 6.65 24.378 24.378 0 005.066 6.23 110.658 110.658 0 0010.8 6.83 20.4 20.4 0 008.24 1.96zm88.714-3.06a19.861 19.861 0 005.676-2.25 33.567 33.567 0 006.226-4.58q3.049-2.8 6.286-9.4a124.4 124.4 0 005.676-13.55 70.285 70.285 0 003.052-10.62 89.6 89.6 0 00.55-13.06q-.063-9.4-.184-14.41a15.609 15.609 0 00-1.953-7.93 23.86 23.86 0 00-6.1-6.11q-4.275-3.167-9.094-7.5t-14.405-4.395a85.506 85.506 0 00-14.038.733q-4.457.795-9.155 1.77a30.629 30.629 0 00-8.667 3.174 33.588 33.588 0 00-7.63 5.921 47.434 47.434 0 00-6.53 8.36 74 74 0 00-5 9.58 49.393 49.393 0 00-3.113 9.77 50.535 50.535 0 00-.671 11.96q.3 7.14.61 8.97t.977 5.07a14.91 14.91 0 002.868 6.1q2.2 2.88 5.127 6.84t15.137 3.97l6.348-3.42a52.51 52.51 0 0010.986-13.12 69.907 69.907 0 005.737-13.74q2.2-7.32 4.4-14.4c0-3.34-.611-5.47-1.831-6.41s-3.134-1.4-5.738-1.4a22.258 22.258 0 00-6.9.97c-2 .66-3.561 2.85-4.7 6.59q-.366 13.32-3.723 17.16t-8.973.42l-2.075-3.66q0-9.39 1.4-14.22t6.9-9.58q5.493-4.77 26.978-4.28c4.312 1.8 7.08 3.42 8.3 4.89a46.153 46.153 0 013.662 5.12 14.034 14.034 0 012.137 6.17q.3 3.24.671 5.13a13.66 13.66 0 01-.3 5.12q-.672 3.24-5.86 8.06a36.778 36.778 0 00-7.873 10.07 79.3 79.3 0 00-4.212 9.58 26.283 26.283 0 00-1.525 8.79q0 4.455 5 8.36a36.084 36.084 0 005.546-.613zm141.142 3.73q6.163-1.41 10.681-7.39c-.408-5.69-1.913-9.26-4.516-10.68a8.955 8.955 0 00-8.423-.06l-1.953 3.17a84.837 84.837 0 01-16.907 1.96q-9.585.24-14.587-3.54a19.677 19.677 0 01-5.616-7.33 28.679 28.679 0 01-1.953-10.01q-.246-5.97 0-12.82a100.848 100.848 0 011.343-13.3l11.231-.61-.486 3.29.489 21.24q3.173 2.94 8.911 1.1 4.27-4.4 4.089-11.96c-.122-5.04-.061-9.77.183-14.16l6.47 1.1a14.683 14.683 0 012.075 7.57q.243 4.875.855 12.08l-9.4 3.79q0 5.37 1.282 6.77t6.164 2.14a59.534 59.534 0 008.789.73q3.906 0 8.3-4.76a38.383 38.383 0 002.075-9.03q.488-4.65.733-11.42t.244-15.5q0-8.73-2.441-11.96a16.962 16.962 0 00-5.371-4.83l-14.405.49h-4.883l.489-10.861q0-5.37.244-10.559a18.334 18.334 0 00-2.075-9.583h-7.937q-5.859 2.443-5.615 5.31t1.221 27.773l-10.865 2.32v-12.087a15.911 15.911 0 00-3.418-10.254 57.775 57.775 0 00-6.9.488q-3.968.489-4.821 7.569t-1.465 20.264l-7.2 2.07a15.787 15.787 0 00-.733 8.92q.976 3.78 7.935 5.24v46.88q1.1 8.295 14.282 10.13l30.762 1.1a42.3 42.3 0 0013.123-.79zm-70.186 1.03a7.852 7.852 0 002.38-2.68q.854-1.59-.244-18.8v-8.18l-.61-24.66q.609-20.13-1.465-23.8l3.174-7.45q1.707-5.609 2.99-9.091a31.328 31.328 0 001.648-8.484q.366-5-.854-7.2-5.493-3.417-8.24-3.418a41.691 41.691 0 00-6.042.488 39.914 39.914 0 00-3.052 6.348q-.612 1.953-1.831 5.188t-2.754 6.829a40.709 40.709 0 01-4.394 7.626 37.233 37.233 0 01-5.493 6.35q-2.626 2.325-3.052 3.91a21.751 21.751 0 00-.427 5.12 10.117 10.117 0 002.441 6.54q2.44 2.985 5.676.24t7.263-5.92l-.976 21.73a57.069 57.069 0 01-.427 8.79 116.249 116.249 0 00-.672 12.75q-.246 10.56-.549 18.62t4.822 10.25c6.106.004 9.665-.356 10.688-1.096zm129.363-2.38a6.2 6.2 0 003.418-1.52q2.806-6.96 1.953-18.56l-1.221-9.64h7.568a13.92 13.92 0 017.08 1.83l.855 6.59q-4.518.375-5.737 2.08a9.327 9.327 0 002.2 5.49 8.73 8.73 0 005.493 3.54c2.2.41 3.824.16 4.883-.73a26.87 26.87 0 003.9-5.01q1.35-2.31 1.77-7.32a96.411 96.411 0 00.25-11.11 15.89 15.89 0 00-5.068-10.99l-16.723.49h-6.47l.122-13.06q6.225-.36 10.376-.36 6.1 0 8.911-1.35a5.353 5.353 0 003.3-3.54c.162-1.62.08-2.62-.244-2.99a13.126 13.126 0 00-1.587-1.4q-1.1-.855-9.033-1.1-5.127-.12-11.475-.24l.116-12.33a76.411 76.411 0 0112.818-.68q6.834.2 10.864-2.38a22.514 22.514 0 00.791-8.236 11.774 11.774 0 00-2.622-6.164l-3.052-2.564-16.357.367v-6.287a7.381 7.381 0 00-2.2-5.432l-10.864.488a6.3 6.3 0 00-1.648 5.432 15.578 15.578 0 01-.427 6.287 48.662 48.662 0 01-5.982 1.1q5-10.864-.122-12.7-5.859-1.951-8.789-1.037t-4.7 6.653a88.445 88.445 0 00-2.686 11.053q-.915 5.31-1.892 9.4a37.981 37.981 0 01-1.526 5.314q-.549 1.215.244 3.84t5.677 3.05q4.879.435 6.591-1.77a22.921 22.921 0 003.174-6.1l3.418.37h4.883v12.45q-7.324.24-14.038 1.1-6.1 1.95-5.8 5.06a5 5 0 002.807 4.34 22.038 22.038 0 007.141 1.7l9.766-.61v12.33a45.148 45.148 0 01-10.864.43 10.159 10.159 0 00-9.4 4.58q-.732 22.335-.976 24.78a5.882 5.882 0 00.976 4.15c3.5 1.46 5.94 2.2 7.324 2.2a6.262 6.262 0 003.418-.86 47.475 47.475 0 001.16-10.86q.06-6.48 3.235-8.67l7.324-.12.122 7.69a90.883 90.883 0 000 11.53 17.646 17.646 0 003.784 10.2 35.785 35.785 0 003.787-.194zm67.441.49c2.08-.77 4.13-2.6 6.17-5.49s3.15-6.86 3.35-11.9.86-18.48 1.96-40.29 1.64-35.192 1.64-40.157-.2-8.057-.61-9.278a36.418 36.418 0 00-1.77-4.272 7.957 7.957 0 00-3.35-3.662 10.688 10.688 0 00-5.25-1.221 8.1 8.1 0 00-5.49 2.136 6.208 6.208 0 00-2.45 4.7v53.464l.61 35.16q-.36 2.805-2.93 2.07a25.79 25.79 0 01-5.43-2.32 17.054 17.054 0 00-7.26-1.83q1.95 10.02 3.97 13.8t10.56 9.28a9.529 9.529 0 006.276-.19zm-18.25-58.84a33.05 33.05 0 004.03-10.07 70.38 70.38 0 00.86-12.45 109.679 109.679 0 00-.37-10.984 15.3 15.3 0 00-1.16-4.7q-.795-1.647-4.03-3.723t-10.19-1.465a7.1 7.1 0 00-2.38 5.676q.06 3.48-.67 17.026t1.03 19.9q1.77 6.345 5.44 6.84c2.836-.33 5.326-2.34 7.436-6.05zm73.46 59.27a8 8 0 002.56-2.69q.915-1.575-.3-19.04v-8.18l-.61-24.78q.6-20.265-1.59-24.05l3.42-7.44q1.71-5.617 3.05-9.158a30.879 30.879 0 001.71-8.545c.24-3.335-.04-5.737-.86-7.2q-5.73-3.415-8.66-3.418a47.685 47.685 0 00-6.47.489 37.085 37.085 0 00-3.18 6.347q-.615 1.954-1.89 5.188t-2.99 6.9a45.26 45.26 0 01-4.7 7.691 38.488 38.488 0 01-5.74 6.351 10.5 10.5 0 00-3.29 3.9 17.319 17.319 0 00-.55 5.19 9.639 9.639 0 002.68 6.59q2.685 3 6.05.25a93.561 93.561 0 0110.19-6.9l-1.47 22.83a49.414 49.414 0 01-.49 8.79q-.48 2.19-.73 12.87t-.61 18.8q-.36 8.115 5.25 10.32 7.571-.005 9.216-1.105zm48.4.61l1.71-.61c1.46-.33 2.19-1.12 2.19-2.38v-3.54c0-1.1.21-3.97.61-8.61s1.67-7.2 3.79-7.69q20.385-.12 22.77-1.4a3.649 3.649 0 002.13-3.79q-.24-2.49-9.03-5.31a62.328 62.328 0 00-19.04-2.8l.97-9.4q13.92 1.215 19.9.61t7.57-3.24a9.713 9.713 0 001.34-5.86c-.16-2.15-.69-3.62-1.59-4.39s-3.05-1.53-6.47-2.26q-7.56-.48-14.52-1.59-6.96-1.095-7.2-9.52l.97-8.05q10.995-.735 17.03-.74c4.03 0 6.96-.44 8.79-1.34a5.325 5.325 0 003.23-3.54q0-6.591-.48-7.141a13.124 13.124 0 00-1.59-1.4q-1.1-.853-8.79-1.1t-18.49-.244a163.283 163.283 0 00-20.45 1.22q8.79-12.45 3.42-15.258t-8.3-2.32q-2.94.489-5.44 5.921a93.856 93.856 0 00-4.15 10.62 77.642 77.642 0 01-4.08 10.254 40.273 40.273 0 01-4.16 7.2 5.492 5.492 0 00-.85 5.19q.855 3.06 5.55 4.09c3.14.69 5.35.39 6.66-.92s3.03-3.15 5.19-5.55 3.68-3.74 4.57-4.03a9.183 9.183 0 013.6-.18 5.027 5.027 0 013.73 2.44q-1.47 42.24-2.08 45.59c-.41 2.24-.79 4.36-1.16 6.35a67.917 67.917 0 00-.79 8.61q-.255 5.61-.25 8.91a20.842 20.842 0 001.1 6.59l3.3.73zm153.29.18a12.123 12.123 0 002.87-5.06q.975-3.18 1.77-6.66c.52-2.32.97-4.67 1.34-7.08s.69-5.43.97-9.09.7-8.48 1.23-14.47.79-11.37.79-16.17-.14-7.75-.43-8.85-.69-2.62-1.22-4.58-1.14-3.9-1.83-5.86-1.4-3.9-2.14-5.86a20.1 20.1 0 00-2.32-4.635q-1.215-1.709-7.87-2.319t-10.99-.611a46.69 46.69 0 00-8.36.733q2.685-11.23 1.96-13.733a13.252 13.252 0 00-3.97-5.493c-2.16-1.994-4.21-2.991-6.17-2.991a12.043 12.043 0 00-4.39.61c-.98.408-1.36 1.669-1.16 3.784a22.074 22.074 0 01-.24 6.1q-.555 2.929-1.29 5.92-.72 2.993-1.28 6.1a32.279 32.279 0 01-2.38 7.267 62.751 62.751 0 01-2.99 6.1 16.358 16.358 0 01-2.68 3.42 14.267 14.267 0 00-2.93 4.82c-.94 2.24-.96 3.84-.07 4.82a22.873 22.873 0 003.79 3.17 5.183 5.183 0 005.13.68 15.008 15.008 0 004.94-3.18 30.745 30.745 0 005.07-7.26l1.83.61a17.5 17.5 0 01-3.36 9.4q-3 4.02-5.8 7.93t-5.43 8.12a35.857 35.857 0 00-3.42 6.53 13.778 13.778 0 00-.61 5.31q.18 3 .18 5.07a4.584 4.584 0 00.92 3.11c.61.69 1.57.84 2.87.43a16.546 16.546 0 004.88-2.93 18.922 18.922 0 004.64-5.25c1.14-1.95 2.34-3.91 3.6-5.86s2.54-4.11 3.85-6.47a30.2 30.2 0 002.93-7.81c.65-2.85 1.17-5.27 1.58-7.27s.98-5.22 1.71-9.7q3.18 1.47 2.2 11.54t-1.65 13.79a35.2 35.2 0 01-2.32 7.57c-1.1 2.56-2.01 4.62-2.74 6.16a15.775 15.775 0 01-2.93 4.21l-3.61 3.73q-1.77 1.83-2.5 6.22a21.9 21.9 0 000 8q.735 3.6 3.18 3.6a6.72 6.72 0 004.45-1.71 103.619 103.619 0 007.33-7.51 66.307 66.307 0 006.71-8.11 46.2 46.2 0 003.23-7.27 39.092 39.092 0 002.32-10.13q.495-5.19 1.35-10.86c.56-3.79.99-6.57 1.28-8.37a85.384 85.384 0 00.43-10.74q4.26 1.71 4.76 2.99a24.339 24.339 0 01.79 5.5q.3 4.2.3 8.42t-.54 10.92q-.555 6.72-.68 9.83c-.08 2.08-.22 4.17-.42 6.29a22.426 22.426 0 01-1.35 5.86 28.3 28.3 0 00-1.52 5.61c-4.88 0-8 .35-9.34 1.04a7.792 7.792 0 00-2.99 2.5c-.65.98-.33 2.52.98 4.64a12.088 12.088 0 004.88 4.64 39.931 39.931 0 007.44 2.68 7.39 7.39 0 005.436-1.882zm-73.18-2.99a6.793 6.793 0 003.11-6.04c.04-2.73.06-6.18.06-10.38a105.479 105.479 0 012.07-17.64 45.37 45.37 0 014.03-3.41c1.79-1.39 3.12-2.42 3.97-3.12a23.982 23.982 0 003.72-4.64c1.63-2.39 2.32-4.23 2.08-5.49s-1.36-2.24-3.36-2.93-5.92.23-11.78 2.75l.37-2.08v-17.21a52.858 52.858 0 016.83-.49q3.18 0 6.41-3.78a21.2 21.2 0 003.97-5.92q.735-2.13-.92-5.067-1.635-2.929-15.68-2.442-.375-21.849-1.34-23.376c-.66-1.017-2.16-1.526-4.52-1.526a13.873 13.873 0 00-4.64.488c-.73.327-1.57 1.385-2.5 3.174s-1.41 4.8-1.41 9.033a81.386 81.386 0 01-.73 11.475l-6.35-.61q0-7.811-.79-10.376a9.441 9.441 0 00-2.56-4.212 5.255 5.255 0 00-3.54-1.648 7.243 7.243 0 00-2.99.55q-1.23.549-2.26 7.08t-1.47 8.85q-.42 2.321-1.4 6.777a51.046 51.046 0 00-1.04 10.31 31.409 31.409 0 00.98 9.22q1.035 3.36 2.62 4.03c1.06.45 2.3.22 3.73-.67a20.857 20.857 0 004.02-3.36 12.238 12.238 0 002.75-5.86 30.319 30.319 0 00.86-5.07l9.27 1.22q.5 7.215.49 11.17a79.569 79.569 0 01-.43 8.18 37.49 37.49 0 01-.79 5.43 20.159 20.159 0 01-5.86 2.02c-2.93.69-4.66 1.59-5.19 2.68a40.687 40.687 0 00-1.77 4.58 26.272 26.272 0 00-.97 8q0 5.07.55 6.16c.36.73 1.32.94 2.86.61a20.1 20.1 0 005.8-2.56q3.48-2.07 4.95-2.93-.735 7.575-1.29 13.85c-.36 4.2-.54 7.39-.54 9.59a19.461 19.461 0 00.36 4.57c.25.86 1.3 1.85 3.18 3a12.894 12.894 0 007.076-1.96zm171.23-43.09a89.276 89.276 0 0014.04-.85 58.385 58.385 0 008.05-1.83 56.528 56.528 0 016.35-1.65 10.108 10.108 0 004.64-1.83q1.275-1.17 1.28-5.56t-1.59-6.04a12.353 12.353 0 00-3.41-2.56c-1.22-.61-2.57-1.22-4.03-1.83a32.318 32.318 0 00-5.86-1.65q-3.66-.735-12.15-.43c-5.65.2-9.3.61-10.92 1.22s-7.04.84-16.24.67q-26.37.735-33.44.61a69.292 69.292 0 00-9.04.19 22.832 22.832 0 00-5.37 1.83 18.276 18.276 0 00-5.25 3.29 5.48 5.48 0 00-1.83 4.03 7.932 7.932 0 00.92 3.91 10.94 10.94 0 002.93 3.23 20.869 20.869 0 006.77 2.99 51.73 51.73 0 008.18 1.83q3.42.435 23.31.43h32.66zm146.57 42.73q7.935-.615 11.36-1.84c2.27-.81 3.7-2.03 4.27-3.66s.69-5.45.36-11.47a12.058 12.058 0 00-7.87 2.32 23.3 23.3 0 01-8.97 3.66h-14.89a13.174 13.174 0 01-5.37-1.77 4.89 4.89 0 01-2.32-2.81 6.776 6.776 0 01.36-3.72l5.98.24h16.85q5.985-.24 8.54-1.34a8.033 8.033 0 003.91-3.42v-16.11q-.36-6.225-.85-13.49a24.275 24.275 0 00-3.91-12.27q-4.155-3.165-11.23-3.42l-19.29.25-20.26.24q-7.08.495-22.22-.06t-18.8 1.41q-3.66 3.045-3.54 30.27-.36 5.61-.85 11.6c.57 2.44 1.54 3.88 2.93 4.33a28.492 28.492 0 007.2.79c3.42.08 6.75.12 10.01.12l-2.81 2.69q-5.985 3.66-12.02 6.77a109.122 109.122 0 01-12.76 5.56 7.159 7.159 0 002.81 3.78 26.556 26.556 0 006.9 1.47 41.211 41.211 0 0010.92-.98 38.919 38.919 0 0012.82-4.88q11.715-8.295 12.94-14.41h9.64l-.49 13.92c1.14 2.85 2.46 4.39 3.97 4.64s3.76.47 6.78.67 6.22.51 9.64.92h20.26zm-12.2-29.91l-47.61.36-12.45-.36-.37-4.4 4.76-.24 19.66-.37q15.5-.36 21.91-.12t11.78.49a50.1 50.1 0 0010.5-.61 6.583 6.583 0 010 5zm-21.124-12.21l-33.33.49h-4.76l.98-5.74a79.855 79.855 0 009.15.98q15.87-.735 21-.98h29.42l6.47.25a9.749 9.749 0 01.61 5.25zm12.27-12.33q-9.7-.12-13.49.61l-26.74.74h-8.3l.61-5.5c1.22-1.05 4.34-1.54 9.34-1.46s9.22.24 12.64.49l15.87.12h14.89c3.42-.33 5.94-.04 7.57.85a5.809 5.809 0 011.46 4.03q-4.155.24-13.85.12zm-26.55-15.87a4.9 4.9 0 004.63-3.78c0-2.69-.81-4.19-2.44-4.52h-16.11v-4.88a65.625 65.625 0 007.87-.489 70.968 70.968 0 018.37-.488q.84-4.638 1.16-7.2a12.6 12.6 0 00-.43-5.066q-.735-2.5-5.01-2.624l-11.11.122-.36-4.517 15.62.366q2.085-3.662.19-6.1a6.61 6.61 0 00-4.83-2.686h-36.37a20.648 20.648 0 00-6.11 1.16 7.424 7.424 0 00-3.78 3.967l-.12 13.062q-.375 8.423-.61 12.758a26.746 26.746 0 001.34 9.46c1.14.98 3.46 1.46 6.96 1.46h41.14zm-35.77-8.3l-.98-.73v-3.78l2.69-.614h10.13l-.37 2.684v2.44h-11.47zm18.8-10.984q-6.72 0-14.41-.122h-5.49v-3.784l16.36-.732a52.8 52.8 0 017.69.305q3.66.429 7.44.671l.49 3.052a107.575 107.575 0 01-12.08.61zm-10.99-8.911h-8.79l.98-3.906 5-1.343h8.06l-.49 4.517zm79.23 5.188q7.32-.183 11.59-2.869a10.73 10.73 0 00-.91-4.272 6.518 6.518 0 00-2.75-2.686l-30.15-.61q6.96-7.691-3.66-7.934a7.227 7.227 0 00-6.96 3.967 19.45 19.45 0 01-5.19 6.408 53.58 53.58 0 00-7.26 7.325q.36 3.662 5.37 4.821t8.06-.61a68.377 68.377 0 019.52-4.211q15.015.855 22.34.671zm-.07 21.547q7.395-.12 11.66-2.2.12-4.515-.67-5.74a5.4 5.4 0 00-2.75-1.95l-30.03-.49q-20.625-.12-20.38 5.68t19.9 4.33q14.88.495 22.27.37z" fill="#66463c" fill-rule="evenodd"/></svg>