<svg xmlns="http://www.w3.org/2000/svg" width="83.879" height="52.484"><path d="M76.889 52.484H6.99A6.785 6.785 0 010 45.924V6.561A6.785 6.785 0 016.99 0h69.9a6.785 6.785 0 016.99 6.561v39.363a6.785 6.785 0 01-6.991 6.56zM18.64 15.855v-5.467a1.7 1.7 0 00-1.747-1.64h-5.826a1.7 1.7 0 00-1.747 1.64v5.467a1.7 1.7 0 001.747 1.64h5.825a1.7 1.7 0 001.748-1.64zm13.98 0v-5.467a1.7 1.7 0 00-1.747-1.64h-5.826a1.7 1.7 0 00-1.747 1.64v5.467a1.7 1.7 0 001.747 1.64h5.825a1.7 1.7 0 001.748-1.64zm13.98 0v-5.467a1.7 1.7 0 00-1.747-1.64h-5.826a1.7 1.7 0 00-1.747 1.64v5.467a1.7 1.7 0 001.747 1.64h5.825a1.7 1.7 0 001.748-1.64zm13.98 0v-5.467a1.7 1.7 0 00-1.747-1.64h-5.826a1.7 1.7 0 00-1.747 1.64v5.467a1.7 1.7 0 001.747 1.64h5.825a1.7 1.7 0 001.747-1.64zm13.98 0v-5.467a1.7 1.7 0 00-1.747-1.64h-5.826a1.7 1.7 0 00-1.747 1.64v5.467a1.7 1.7 0 001.747 1.64h5.825a1.7 1.7 0 001.747-1.64zM25.63 28.976v-5.467a1.7 1.7 0 00-1.747-1.64h-5.826a1.7 1.7 0 00-1.747 1.64v5.467a1.7 1.7 0 001.747 1.64h5.825a1.7 1.7 0 001.748-1.64zm13.98 0v-5.467a1.7 1.7 0 00-1.747-1.64h-5.826a1.7 1.7 0 00-1.747 1.64v5.467a1.7 1.7 0 001.747 1.64h5.825a1.7 1.7 0 001.747-1.64zm13.98 0v-5.467a1.7 1.7 0 00-1.747-1.64h-5.826a1.7 1.7 0 00-1.747 1.64v5.467a1.7 1.7 0 001.747 1.64h5.825a1.7 1.7 0 001.747-1.64zm13.98 0v-5.467a1.7 1.7 0 00-1.747-1.64H60a1.7 1.7 0 00-1.747 1.64v5.467A1.7 1.7 0 0060 30.616h5.825a1.7 1.7 0 001.744-1.64zM18.64 42.1v-5.47a1.7 1.7 0 00-1.747-1.64h-5.826a1.7 1.7 0 00-1.747 1.64v5.47a1.7 1.7 0 001.747 1.64h5.825a1.7 1.7 0 001.748-1.64zm41.939 0v-5.47a1.7 1.7 0 00-1.747-1.64H25.047a1.7 1.7 0 00-1.747 1.64v5.47a1.7 1.7 0 001.747 1.64h33.785a1.7 1.7 0 001.747-1.64zm13.98 0v-5.47a1.7 1.7 0 00-1.747-1.64h-5.825a1.7 1.7 0 00-1.747 1.64v5.47a1.7 1.7 0 001.747 1.64h5.825a1.7 1.7 0 001.747-1.64z"/></svg>